{
	"asset":{
		"generator":"Khronos glTF Blender I/O v5.1.20",
		"version":"2.0"
	},
	"extensionsUsed":[
		"KHR_materials_specular",
		"KHR_materials_ior"
	],
	"scene":0,
	"scenes":[
		{
			"name":"Scene",
			"nodes":[
				0
			]
		}
	],
	"nodes":[
		{
			"mesh":0,
			"name":"TS_NAPOWR",
			"rotation":[
				0.7071068286895752,
				0,
				0,
				0.7071068286895752
			]
		}
	],
	"materials":[
		{
			"doubleSided":true,
			"extensions":{
				"KHR_materials_specular":{
					"specularFactor":0.019999999552965164
				},
				"KHR_materials_ior":{
					"ior":1
				}
			},
			"name":"TS_Gray_Hi.png",
			"pbrMetallicRoughness":{
				"baseColorTexture":{
					"index":0
				},
				"metallicFactor":0,
				"roughnessFactor":0.6900347471237183
			}
		},
		{
			"doubleSided":true,
			"extensions":{
				"KHR_materials_specular":{
					"specularFactor":0.019999999552965164
				},
				"KHR_materials_ior":{
					"ior":1
				}
			},
			"name":"TS_Ref_Tank.png",
			"pbrMetallicRoughness":{
				"baseColorTexture":{
					"index":1
				},
				"metallicFactor":0,
				"roughnessFactor":0.6900347471237183
			}
		},
		{
			"doubleSided":true,
			"extensions":{
				"KHR_materials_specular":{
					"specularFactor":0.019999999552965164
				},
				"KHR_materials_ior":{
					"ior":1
				}
			},
			"name":"TS_Civ_Hab.png",
			"pbrMetallicRoughness":{
				"baseColorTexture":{
					"index":2
				},
				"metallicFactor":0,
				"roughnessFactor":0.6900347471237183
			}
		},
		{
			"doubleSided":true,
			"extensions":{
				"KHR_materials_specular":{
					"specularFactor":0.019999999552965164
				},
				"KHR_materials_ior":{
					"ior":1
				}
			},
			"name":"TS_sto_stuff1_s.png.001",
			"pbrMetallicRoughness":{
				"baseColorTexture":{
					"index":3
				},
				"metallicFactor":0,
				"roughnessFactor":0.6900347471237183
			}
		},
		{
			"doubleSided":true,
			"extensions":{
				"KHR_materials_specular":{
					"specularFactor":0.019999999552965164
				},
				"KHR_materials_ior":{
					"ior":1
				}
			},
			"name":"TS_Roll_door.png",
			"pbrMetallicRoughness":{
				"baseColorTexture":{
					"index":4
				},
				"metallicFactor":0,
				"roughnessFactor":0.6900347471237183
			}
		},
		{
			"doubleSided":true,
			"extensions":{
				"KHR_materials_specular":{
					"specularFactor":0.019999999552965164
				},
				"KHR_materials_ior":{
					"ior":1
				}
			},
			"name":"TS_REF_Top.png",
			"pbrMetallicRoughness":{
				"baseColorTexture":{
					"index":5
				},
				"metallicFactor":0,
				"roughnessFactor":0.6900347471237183
			}
		},
		{
			"doubleSided":true,
			"extensions":{
				"KHR_materials_specular":{
					"specularFactor":0.019999999552965164
				},
				"KHR_materials_ior":{
					"ior":1
				}
			},
			"name":"TS_REF_Top.png_TS_REF_Top.png",
			"pbrMetallicRoughness":{
				"baseColorTexture":{
					"index":6
				},
				"metallicFactor":0,
				"roughnessFactor":0.6900347471237183
			}
		},
		{
			"doubleSided":true,
			"extensions":{
				"KHR_materials_specular":{
					"specularFactor":0.019999999552965164
				},
				"KHR_materials_ior":{
					"ior":1
				}
			},
			"name":"TS_REF.png",
			"pbrMetallicRoughness":{
				"baseColorTexture":{
					"index":7
				},
				"metallicFactor":0,
				"roughnessFactor":0.6900347471237183
			}
		},
		{
			"doubleSided":true,
			"extensions":{
				"KHR_materials_specular":{
					"specularFactor":0.019999999552965164
				},
				"KHR_materials_ior":{
					"ior":1
				}
			},
			"name":"TS_REF_Red_Low.png",
			"pbrMetallicRoughness":{
				"baseColorTexture":{
					"index":8
				},
				"metallicFactor":0,
				"roughnessFactor":0.6900347471237183
			}
		},
		{
			"doubleSided":true,
			"extensions":{
				"KHR_materials_specular":{
					"specularFactor":0.019999999552965164
				},
				"KHR_materials_ior":{
					"ior":1
				}
			},
			"name":"TS_REF_Red_Hi.png",
			"pbrMetallicRoughness":{
				"baseColorTexture":{
					"index":9
				},
				"metallicFactor":0,
				"roughnessFactor":0.6900347471237183
			}
		}
	],
	"meshes":[
		{
			"name":"TS_NAPOWR",
			"primitives":[
				{
					"attributes":{
						"POSITION":0,
						"NORMAL":1,
						"TEXCOORD_0":2
					},
					"indices":3,
					"material":0
				},
				{
					"attributes":{
						"POSITION":4,
						"NORMAL":5,
						"TEXCOORD_0":6
					},
					"indices":7,
					"material":1
				},
				{
					"attributes":{
						"POSITION":8,
						"NORMAL":9,
						"TEXCOORD_0":10
					},
					"indices":11,
					"material":2
				},
				{
					"attributes":{
						"POSITION":12,
						"NORMAL":13,
						"TEXCOORD_0":14
					},
					"indices":15,
					"material":3
				},
				{
					"attributes":{
						"POSITION":16,
						"NORMAL":17,
						"TEXCOORD_0":18
					},
					"indices":19,
					"material":4
				},
				{
					"attributes":{
						"POSITION":20,
						"NORMAL":21,
						"TEXCOORD_0":22
					},
					"indices":23,
					"material":5
				},
				{
					"attributes":{
						"POSITION":24,
						"NORMAL":25,
						"TEXCOORD_0":26
					},
					"indices":27,
					"material":6
				},
				{
					"attributes":{
						"POSITION":28,
						"NORMAL":29,
						"TEXCOORD_0":30
					},
					"indices":31,
					"material":7
				},
				{
					"attributes":{
						"POSITION":32,
						"NORMAL":33,
						"TEXCOORD_0":34
					},
					"indices":35,
					"material":8
				},
				{
					"attributes":{
						"POSITION":36,
						"NORMAL":37,
						"TEXCOORD_0":38
					},
					"indices":39,
					"material":9
				}
			]
		}
	],
	"textures":[
		{
			"sampler":0,
			"source":0
		},
		{
			"sampler":0,
			"source":1
		},
		{
			"sampler":0,
			"source":2
		},
		{
			"sampler":0,
			"source":3
		},
		{
			"sampler":0,
			"source":4
		},
		{
			"sampler":0,
			"source":5
		},
		{
			"sampler":0,
			"source":6
		},
		{
			"sampler":0,
			"source":5
		},
		{
			"sampler":0,
			"source":7
		},
		{
			"sampler":0,
			"source":8
		}
	],
	"images":[
		{
			"mimeType":"image/png",
			"name":"TS_Gray_Hi",
			"uri":"TS_Gray_Hi.png"
		},
		{
			"mimeType":"image/png",
			"name":"TS_Ref_Tank",
			"uri":"TS_Ref_Tank.png"
		},
		{
			"mimeType":"image/png",
			"name":"TS_Civ_Hab",
			"uri":"TS_Civ_Hab.png"
		},
		{
			"mimeType":"image/png",
			"name":"TS_sto_stuff1_s",
			"uri":"TS_sto_stuff1_s.png"
		},
		{
			"mimeType":"image/png",
			"name":"TS_Roll_door",
			"uri":"TS_Roll_door.png"
		},
		{
			"mimeType":"image/png",
			"name":"TS_REF",
			"uri":"TS_REF.png"
		},
		{
			"mimeType":"image/png",
			"name":"TS_REF_Top",
			"uri":"TS_REF_Top.png"
		},
		{
			"mimeType":"image/png",
			"name":"TS_REF_Red_Low",
			"uri":"TS_REF_Red_Low.png"
		},
		{
			"mimeType":"image/png",
			"name":"TS_REF_Red_Hi",
			"uri":"TS_REF_Red_Hi.png"
		}
	],
	"accessors":[
		{
			"bufferView":0,
			"componentType":5126,
			"count":80,
			"max":[
				1.3545643091201782,
				1.7124252319335938,
				-0.42616721987724304
			],
			"min":[
				-1.354513168334961,
				-0.3196316361427307,
				-0.5539630651473999
			],
			"type":"VEC3"
		},
		{
			"bufferView":1,
			"componentType":5126,
			"count":80,
			"type":"VEC3"
		},
		{
			"bufferView":2,
			"componentType":5126,
			"count":80,
			"type":"VEC2"
		},
		{
			"bufferView":3,
			"componentType":5123,
			"count":348,
			"type":"SCALAR"
		},
		{
			"bufferView":4,
			"componentType":5126,
			"count":135,
			"max":[
				1.1764861345291138,
				0.6803959608078003,
				-0.5450423955917358
			],
			"min":[
				0.8600984811782837,
				-1.0081514120101929,
				-0.9177796840667725
			],
			"type":"VEC3"
		},
		{
			"bufferView":5,
			"componentType":5126,
			"count":135,
			"type":"VEC3"
		},
		{
			"bufferView":6,
			"componentType":5126,
			"count":135,
			"type":"VEC2"
		},
		{
			"bufferView":7,
			"componentType":5123,
			"count":504,
			"type":"SCALAR"
		},
		{
			"bufferView":8,
			"componentType":5126,
			"count":659,
			"max":[
				1.357063889503479,
				1.3027348518371582,
				-0.017738953232765198
			],
			"min":[
				-0.486100435256958,
				-1.022772192955017,
				-2.012960195541382
			],
			"type":"VEC3"
		},
		{
			"bufferView":9,
			"componentType":5126,
			"count":659,
			"type":"VEC3"
		},
		{
			"bufferView":10,
			"componentType":5126,
			"count":659,
			"type":"VEC2"
		},
		{
			"bufferView":11,
			"componentType":5123,
			"count":2226,
			"type":"SCALAR"
		},
		{
			"bufferView":12,
			"componentType":5126,
			"count":420,
			"max":[
				1.6363807916641235,
				1.2920398712158203,
				-0.041415587067604065
			],
			"min":[
				-0.4940554201602936,
				-0.15479999780654907,
				-2.022052049636841
			],
			"type":"VEC3"
		},
		{
			"bufferView":13,
			"componentType":5126,
			"count":420,
			"type":"VEC3"
		},
		{
			"bufferView":14,
			"componentType":5126,
			"count":420,
			"type":"VEC2"
		},
		{
			"bufferView":15,
			"componentType":5123,
			"count":1512,
			"type":"SCALAR"
		},
		{
			"bufferView":16,
			"componentType":5126,
			"count":8,
			"max":[
				0.8630546927452087,
				1.5650547742843628,
				-9.255062494162303e-09
			],
			"min":[
				-0.8630555272102356,
				1.4010425806045532,
				-0.4118511974811554
			],
			"type":"VEC3"
		},
		{
			"bufferView":17,
			"componentType":5126,
			"count":8,
			"type":"VEC3"
		},
		{
			"bufferView":18,
			"componentType":5126,
			"count":8,
			"type":"VEC2"
		},
		{
			"bufferView":19,
			"componentType":5123,
			"count":12,
			"type":"SCALAR"
		},
		{
			"bufferView":20,
			"componentType":5126,
			"count":49,
			"max":[
				1.3783138990402222,
				1.5734550952911377,
				-9.255062494162303e-09
			],
			"min":[
				-0.883337676525116,
				-0.22513055801391602,
				-0.4263157844543457
			],
			"type":"VEC3"
		},
		{
			"bufferView":21,
			"componentType":5126,
			"count":49,
			"type":"VEC3"
		},
		{
			"bufferView":22,
			"componentType":5126,
			"count":49,
			"type":"VEC2"
		},
		{
			"bufferView":23,
			"componentType":5123,
			"count":72,
			"type":"SCALAR"
		},
		{
			"bufferView":24,
			"componentType":5126,
			"count":179,
			"max":[
				1.3783138990402222,
				1.5734550952911377,
				-9.255062494162303e-09
			],
			"min":[
				-1.1679760217666626,
				-1.2905621528625488,
				-2.424149513244629
			],
			"type":"VEC3"
		},
		{
			"bufferView":25,
			"componentType":5126,
			"count":179,
			"type":"VEC3"
		},
		{
			"bufferView":26,
			"componentType":5126,
			"count":179,
			"type":"VEC2"
		},
		{
			"bufferView":27,
			"componentType":5123,
			"count":636,
			"type":"SCALAR"
		},
		{
			"bufferView":28,
			"componentType":5126,
			"count":42,
			"max":[
				1.2106873989105225,
				1.0881012678146362,
				-9.255062494162303e-09
			],
			"min":[
				-1.2106873989105225,
				-1.3332743644714355,
				-0.1633325070142746
			],
			"type":"VEC3"
		},
		{
			"bufferView":29,
			"componentType":5126,
			"count":42,
			"type":"VEC3"
		},
		{
			"bufferView":30,
			"componentType":5126,
			"count":42,
			"type":"VEC2"
		},
		{
			"bufferView":31,
			"componentType":5123,
			"count":120,
			"type":"SCALAR"
		},
		{
			"bufferView":32,
			"componentType":5126,
			"count":119,
			"max":[
				1.536642074584961,
				1.9974815845489502,
				-1.852803563906491e-07
			],
			"min":[
				-1.536642074584961,
				-1.9718295335769653,
				-0.4934448003768921
			],
			"type":"VEC3"
		},
		{
			"bufferView":33,
			"componentType":5126,
			"count":119,
			"type":"VEC3"
		},
		{
			"bufferView":34,
			"componentType":5126,
			"count":119,
			"type":"VEC2"
		},
		{
			"bufferView":35,
			"componentType":5123,
			"count":180,
			"type":"SCALAR"
		},
		{
			"bufferView":36,
			"componentType":5126,
			"count":311,
			"max":[
				1.066322684288025,
				1.3323497772216797,
				-0.49343976378440857
			],
			"min":[
				-1.066322684288025,
				-1.4397270679473877,
				-2.424149513244629
			],
			"type":"VEC3"
		},
		{
			"bufferView":37,
			"componentType":5126,
			"count":311,
			"type":"VEC3"
		},
		{
			"bufferView":38,
			"componentType":5126,
			"count":311,
			"type":"VEC2"
		},
		{
			"bufferView":39,
			"componentType":5123,
			"count":1020,
			"type":"SCALAR"
		}
	],
	"bufferViews":[
		{
			"buffer":0,
			"byteLength":960,
			"byteOffset":0,
			"target":34962
		},
		{
			"buffer":0,
			"byteLength":960,
			"byteOffset":960,
			"target":34962
		},
		{
			"buffer":0,
			"byteLength":640,
			"byteOffset":1920,
			"target":34962
		},
		{
			"buffer":0,
			"byteLength":696,
			"byteOffset":2560,
			"target":34963
		},
		{
			"buffer":0,
			"byteLength":1620,
			"byteOffset":3256,
			"target":34962
		},
		{
			"buffer":0,
			"byteLength":1620,
			"byteOffset":4876,
			"target":34962
		},
		{
			"buffer":0,
			"byteLength":1080,
			"byteOffset":6496,
			"target":34962
		},
		{
			"buffer":0,
			"byteLength":1008,
			"byteOffset":7576,
			"target":34963
		},
		{
			"buffer":0,
			"byteLength":7908,
			"byteOffset":8584,
			"target":34962
		},
		{
			"buffer":0,
			"byteLength":7908,
			"byteOffset":16492,
			"target":34962
		},
		{
			"buffer":0,
			"byteLength":5272,
			"byteOffset":24400,
			"target":34962
		},
		{
			"buffer":0,
			"byteLength":4452,
			"byteOffset":29672,
			"target":34963
		},
		{
			"buffer":0,
			"byteLength":5040,
			"byteOffset":34124,
			"target":34962
		},
		{
			"buffer":0,
			"byteLength":5040,
			"byteOffset":39164,
			"target":34962
		},
		{
			"buffer":0,
			"byteLength":3360,
			"byteOffset":44204,
			"target":34962
		},
		{
			"buffer":0,
			"byteLength":3024,
			"byteOffset":47564,
			"target":34963
		},
		{
			"buffer":0,
			"byteLength":96,
			"byteOffset":50588,
			"target":34962
		},
		{
			"buffer":0,
			"byteLength":96,
			"byteOffset":50684,
			"target":34962
		},
		{
			"buffer":0,
			"byteLength":64,
			"byteOffset":50780,
			"target":34962
		},
		{
			"buffer":0,
			"byteLength":24,
			"byteOffset":50844,
			"target":34963
		},
		{
			"buffer":0,
			"byteLength":588,
			"byteOffset":50868,
			"target":34962
		},
		{
			"buffer":0,
			"byteLength":588,
			"byteOffset":51456,
			"target":34962
		},
		{
			"buffer":0,
			"byteLength":392,
			"byteOffset":52044,
			"target":34962
		},
		{
			"buffer":0,
			"byteLength":144,
			"byteOffset":52436,
			"target":34963
		},
		{
			"buffer":0,
			"byteLength":2148,
			"byteOffset":52580,
			"target":34962
		},
		{
			"buffer":0,
			"byteLength":2148,
			"byteOffset":54728,
			"target":34962
		},
		{
			"buffer":0,
			"byteLength":1432,
			"byteOffset":56876,
			"target":34962
		},
		{
			"buffer":0,
			"byteLength":1272,
			"byteOffset":58308,
			"target":34963
		},
		{
			"buffer":0,
			"byteLength":504,
			"byteOffset":59580,
			"target":34962
		},
		{
			"buffer":0,
			"byteLength":504,
			"byteOffset":60084,
			"target":34962
		},
		{
			"buffer":0,
			"byteLength":336,
			"byteOffset":60588,
			"target":34962
		},
		{
			"buffer":0,
			"byteLength":240,
			"byteOffset":60924,
			"target":34963
		},
		{
			"buffer":0,
			"byteLength":1428,
			"byteOffset":61164,
			"target":34962
		},
		{
			"buffer":0,
			"byteLength":1428,
			"byteOffset":62592,
			"target":34962
		},
		{
			"buffer":0,
			"byteLength":952,
			"byteOffset":64020,
			"target":34962
		},
		{
			"buffer":0,
			"byteLength":360,
			"byteOffset":64972,
			"target":34963
		},
		{
			"buffer":0,
			"byteLength":3732,
			"byteOffset":65332,
			"target":34962
		},
		{
			"buffer":0,
			"byteLength":3732,
			"byteOffset":69064,
			"target":34962
		},
		{
			"buffer":0,
			"byteLength":2488,
			"byteOffset":72796,
			"target":34962
		},
		{
			"buffer":0,
			"byteLength":2040,
			"byteOffset":75284,
			"target":34963
		}
	],
	"samplers":[
		{
			"magFilter":9729,
			"minFilter":9987
		}
	],
	"buffers":[
		{
			"byteLength":77324,
			"uri":"nod_power_plant01.bin"
		}
	]
}
